# AST/ASF file generated using VICON BodyLanguage
# -----------------------------------------------
:version 1.10
:name VICON
:units
  mass 1.0
  length 0.45
  angle deg
:documentation
   .ast/.asf automatically generated from VICON data using
   VICON BodyBuilder and BodyLanguage model FoxedUp or BRILLIANT.MOD
:root
   order TX TY TZ RX RY RZ
   axis XYZ
   position 0 0 0  
   orientation 0 0 0 
:bonedata
  begin
     id 1 
     name lhipjoint
     direction 0.710188 -0.616876 0.339259 
     length 2.5669 
     axis 0 0 0  XYZ
  end
  begin
     id 2 
     name lfemur
     direction 0.34202 -0.939693 0  
     length 7.12796  
     axis 0 0 20  XYZ
    dof rx ry rz
    limits (-160.0 20.0)
           (-70.0 70.0)
           (-60.0 70.0)
  end
  begin
     id 3 
     name ltibia
     direction 0.34202 -0.939693 0   
     length 7.58108   
     axis 0 0 20   XYZ
    dof rx
    limits (-10.0 170.0)
  end
  begin
     id 4 
     name lfoot
     direction 0.0669471 -0.183936 0.980656   
     length 2.17365   
     axis -90 7.62852e-016 20   XYZ
    dof rx rz
    limits (-45.0 90.0)
           (-70.0 20.0)
  end
  begin
     id 5 
     name ltoes
     direction 1.53508e-011 -4.21705e-011 1   
     length 1.09427   
     axis -90 7.62852e-016 20   XYZ
    dof rx
    limits (-90.0 20.0)
  end
  begin
     id 6 
     name rhipjoint
     direction -0.700191 -0.625589 0.34405   
     length 2.53115  
     axis 0 0 0  XYZ 
  end
  begin
     id 7 
     name rfemur
     direction -0.34202 -0.939693 0   
     length 7.33006   
     axis 0 0 -20   XYZ
    dof rx ry rz
    limits (-160.0 20.0)
           (-70.0 70.0)
           (-70.0 60.0)
  end
  begin
     id 8 
     name rtibia
     direction -0.34202 -0.939693 0   
     length 7.64926   
     axis 0 0 -20   XYZ
    dof rx
    limits (-10.0 170.0)
 end
 begin
     id 9 
     name rfoot
     direction -0.0688927 -0.189281 0.979503   
     length 2.20493  
     axis -90 -7.62852e-016 -20   XYZ
    dof rx rz
    limits (-45.0 90.0)
           (-20.0 70.0)
  end
  begin
     id 10 
     name rtoes
     direction -1.53567e-011 -4.21933e-011 1   
     length 1.10919   
     axis -90 -7.62852e-016 -20   XYZ
    dof rx
    limits (-90.0 20.0)
  end
  begin
     id 11 
     name lowerback
     direction -0.0167868 0.989873 -0.140959   
     length 2.14596   
     axis 0 0 0   XYZ
    dof rx ry rz
    limits (-20.0 45.0)
           (-30.0 30.0)
           (-30.0 30.0)
  end
  begin
     id 12 
     name upperback
     direction 0.0129109 0.998033 0.0613525   
     length 2.10457   
     axis 0 0 0   XYZ
    dof rx ry rz
    limits (-20.0 45.0)
           (-30.0 30.0)
           (-30.0 30.0)
  end
  begin
     id 13 
     name thorax
     direction 0.0177047 0.991119 0.131797   
     length 2.17652   
     axis 0 0 0   XYZ
    dof rx ry rz
    limits (-20.0 45.0)
           (-30.0 30.0)
           (-30.0 30.0)
  end
  begin
     id 14 
     name lowerneck
     direction -0.0336893 0.997548 0.0613464   
     length 1.8912   
     axis 0 0 0   XYZ
    dof rx ry rz
    limits (-20.0 45.0)
           (-30.0 30.0)
           (-30.0 30.0)
  end
  begin
     id 15 
     name upperneck
     direction 0.0435909 0.997179 -0.0611028   
     length 1.8829   
     axis 0 0 0   XYZ
    dof rx ry rz
    limits (-20.0 45.0)
           (-30.0 30.0)
           (-30.0 30.0)
  end
  begin
     id 16
     name head
     direction 0.0175076 0.999444 -0.0283782  
     length 1.93197  
     axis 0 0 0   XYZ
    dof rx ry rz
    limits (-20.0 45.0)
           (-30.0 30.0)
           (-30.0 30.0)
  end
  begin
     id 17 
     name lclavicle
     direction 0.919164 0.389875 0.0559876  
     length 3.60004  
     axis 0 0 0   XYZ
    dof ry rz
    limits (-20.0 10.0)
           (0.0 20.0)
  end
  begin
     id 18 
     name lhumerus
     direction 1 -4.48958e-011 6.89191e-027   
     length 5.43301   
     axis 180 -30 -90   XYZ
    dof rx ry rz
    limits (-60.0 90.0)
           (-90.0 90.0)
           (-90.0 90.0)
  end
  begin
     id 19
     name lradius
     direction 1 -4.4897e-011 3.24727e-027   
     length 3.15936   
     axis 180 -30 -90   XYZ
    dof rx
    limits (-10.0 170.0)
  end
  begin
     id 20
     name lwrist
     direction 1 -4.4897e-011 9.00228e-027   
     length 1.57968   
     axis -6.29373e-015 90 90   XYZ
    dof ry
    limits (-180.0 0.0)
 end
  begin
     id 21 
     name lhand
     direction 1 -4.48968e-011 1.80042e-026   
     length 0.712827   
     axis -1.14882e-014 90 90   XYZ
    dof rx rz
    limits (-90.0 90.0)
           (-45.0 45.0)
  end
  begin
     id 22 
     name lfingers
     direction 1 -4.49019e-011 3.60267e-026   
     length 0.574699   
     axis -2.29769e-014 90 90   XYZ
    dof rx
    limits (0.0 90.0)
  end
  begin
     id 23
     name lthumb
     direction 0.707107 -6.3498e-011 0.707107   
     length 0.825157   
     axis -90 45 5.37419e-014   XYZ
    dof rx rz
    limits (-45.0 45.0)
           (-45.0 45.0)
  end
  begin
     id 24 
     name rclavicle
     direction -0.890334 0.455305 -0.00132111   
     length 3.51494  
     axis 0 0 0   XYZ 
    dof ry rz
    limits (-10.0 20.0)
           (-20.0 0.0)
  end
  begin
     id 25 
     name rhumerus
     direction -1 -4.48967e-011 5.07175e-028  
     length 5.34194   
     axis 180 30 90   XYZ
    dof rx ry rz
    limits (-90.0 60.0)
           (-90.0 90.0)
           (-90.0 90.0)
  end
  begin
     id 26 
     name rradius
     direction -1 -4.48955e-011 3.30467e-027   
     length 3.19351   
     axis 180 30 90   XYZ
    dof rx
    limits (-10.0 170.0)
  end
  begin
     id 27 
     name rwrist
     direction -1 -4.48968e-011 9.00208e-027   
     length 1.59676   
     axis -6.29373e-015 -90 -90   XYZ
    dof ry
    limits (-180.0 0.0)
  end
  begin
     id 28
     name rhand
     direction -1 -4.49e-011 1.80099e-026   
     length 0.743862   
     axis -1.14882e-014 -90 -90   XYZ
    dof rx rz
    limits (-90.0 90.0)
           (-45.0 45.0)
  end
  begin
     id 29
     name rfingers
     direction -1 -4.49009e-011 3.6023e-026   
     length 0.599721   
     axis -2.29769e-014 -90 -90   XYZ
    dof rx
    limits (0.0 90.0)
  end
  begin
     id 30
     name rthumb
     direction -0.707107 -6.35025e-011 0.707107   
     length 0.861083   
     axis -90 -45 -5.37419e-014   XYZ
    dof rx rz
    limits (-45.0 45.0)
           (-45.0 45.0)
  end
:hierarchy
  begin
    root lhipjoint rhipjoint lowerback
    lhipjoint lfemur
    lfemur ltibia
    ltibia lfoot
    lfoot ltoes
    rhipjoint rfemur
    rfemur rtibia
    rtibia rfoot
    rfoot rtoes
    lowerback upperback
    upperback thorax
    thorax lowerneck lclavicle rclavicle
    lowerneck upperneck
    upperneck head
    lclavicle lhumerus
    lhumerus lradius
    lradius lwrist
    lwrist lhand lthumb
    lhand lfingers
    rclavicle rhumerus
    rhumerus rradius
    rradius rwrist
    rwrist rhand rthumb
    rhand rfingers
  end

#!OML:ASF H:\Martial Arts Walks\Project 1\Capture day 1\Session 1\male.ASF
:FULLY-SPECIFIED
:DEGREES
923
root 0.715648 12.8838 30.6675 16.444 -30.4466 -19.5217
lowerback 8.72706 1.40516 6.33012
upperback -1.95241 2.90364 5.29051
thorax -6.95081 1.26016 1.60881
lowerneck -3.35346 7.46548 1.8997
upperneck 6.99331 9.77632 1.25025
head 2.83644 4.94262 0.421451
rclavicle 3.48867e-014 1.15295e-014
rhumerus -76.2013 19.5348 -96.5521
rradius 110.547
rwrist -50.9922
rhand 1.43899 -14.5899
rfingers 7.12502
rthumb 26.9679 -42.6852
lclavicle 3.48867e-014 1.15295e-014
lhumerus 7.59547 -2.73346 67.7395
lradius 26.6292
lwrist -41.7158
lhand -21.2737 22.6
lfingers 7.12502
lthumb 5.11008 52.5184
rfemur 13.2802 -3.47279 10.902
rtibia 29.6332
rfoot -23.6956 -27.6319
rtoes -30.2146
lfemur -73.6161 39.3477 -6.32074
ltibia 86.7396
lfoot -15.9268 -2.86993
ltoes -1.85124
924
root 0.715897 12.8826 30.6691 16.4327 -30.4572 -19.499
lowerback 8.72461 1.40066 6.31539
upperback -1.95682 2.89589 5.28608
thorax -6.95463 1.2568 1.61346
lowerneck -3.39113 7.46698 1.88748
upperneck 7.01139 9.77642 1.27397
head 2.84756 4.94325 0.433108
rclavicle -6.49529e-014 -6.75868e-014
rhumerus -76.2003 19.5375 -96.5628
rradius 110.54
rwrist -50.9677
rhand 1.56675 -14.4981
rfingers 7.12502
rthumb 27.0902 -42.5745
lclavicle -6.49529e-014 -6.75868e-014
lhumerus 7.58225 -2.77426 67.7252
lradius 26.5921
lwrist -41.7615
lhand -21.204 22.548
lfingers 7.12502
lthumb 5.17738 52.4647
rfemur 13.2879 -3.46181 10.8723
rtibia 29.6298
rfoot -23.7027 -27.6333
rtoes -30.2089
lfemur -73.6147 39.3724 -6.34894
ltibia 86.7508
lfoot -15.9483 -2.89118
ltoes -1.86384
925
root 0.715981 12.8816 30.6705 16.4289 -30.4575 -19.4866
lowerback 8.72065 1.39356 6.31242
upperback -1.96384 2.8861 5.283
thorax -6.95999 1.25189 1.61335
lowerneck -3.3994 7.45808 1.89624
upperneck 7.00507 9.7638 1.27491
head 2.84735 4.93723 0.431724
rclavicle -4.49253e-014 -6.75868e-015
rhumerus -76.1972 19.5392 -96.5753
rradius 110.533
rwrist -50.9265
rhand 1.75788 -14.3525
rfingers 7.12502
rthumb 27.273 -42.4003
lclavicle -4.49253e-014 -6.75868e-015
lhumerus 7.57012 -2.77634 67.7245
lradius 26.5525
lwrist -41.7805
lhand -21.1499 22.498
lfingers 7.12502
lthumb 5.22963 52.4135
rfemur 13.3 -3.45236 10.8582
rtibia 29.6148
rfoot -23.6999 -27.6375
rtoes -30.218
lfemur -73.624 39.3904 -6.37075
ltibia 86.7608
lfoot -15.9652 -2.9132
ltoes -1.88381
926
root 0.715918 12.8807 30.6718 16.4369 -30.4467 -19.4873
lowerback 8.71495 1.38345 6.32285
upperback -1.9765 2.87425 5.28334
thorax -6.97004 1.2453 1.6098
lowerneck -3.3743 7.43986 1.92099
upperneck 6.97442 9.74009 1.25571
head 2.83466 4.92534 0.418807
rclavicle -9.21864e-014 -4.45278e-014
rhumerus -76.1977 19.5417 -96.5894
rradius 110.526
rwrist -50.8737
rhand 1.99447 -14.1705
rfingers 7.12502
rthumb 27.4993 -42.1825
lclavicle -9.21864e-014 -4.45278e-014
lhumerus 7.55251 -2.75264 67.7337
lradius 26.5161
lwrist -41.7632
lhand -21.1245 22.4691
lfingers 7.12502
lthumb 5.25415 52.384
rfemur 13.3119 -3.44552 10.8628
rtibia 29.5901
rfoot -23.6821 -27.6469
rtoes -30.2555
lfemur -73.6486 39.4022 -6.386
ltibia 86.771
lfoot -15.9777 -2.93343
ltoes -1.91402
927
root 0.715753 12.8797 30.673 16.4528 -30.4277 -19.4975
lowerback 8.70742 1.37199 6.34483
upperback -1.9924 2.862 5.28466
thorax -6.98212 1.23795 1.601
lowerneck -3.36874 7.43163 1.93006
upperneck 6.96961 9.72778 1.26815
head 2.83176 4.91985 0.420378
rclavicle -1.309e-013 -3.65764e-014
rhumerus -76.1969 19.5402 -96.6041
rradius 110.517
rwrist -50.819
rhand 2.25498 -13.9649
rfingers 7.12502
rthumb 27.7484 -41.9371
lclavicle -1.309e-013 -3.65764e-014
lhumerus 7.5307 -2.7132 67.7485
lradius 26.4878
lwrist -41.7274
lhand -21.1248 22.4588
lfingers 7.12502
lthumb 5.25387 52.3736
rfemur 13.3246 -3.43985 10.8814
rtibia 29.5587
rfoot -23.6533 -27.6624
rtoes -30.3041
lfemur -73.6854 39.4085 -6.39653
ltibia 86.7828
lfoot -15.9862 -2.95061
ltoes -1.95212
928
root 0.715509 12.8786 30.6744 16.4751 -30.406 -19.5134
lowerback 8.69545 1.35956 6.37414
upperback -2.01091 2.8491 5.28771
thorax -6.99424 1.22995 1.59018
lowerneck -3.38639 7.43431 1.9231
upperneck 6.9936 9.7285 1.30572
head 2.84069 4.92137 0.434778
rclavicle 8.79622e-015 4.77083e-015
rhumerus -76.1966 19.5411 -96.618
rradius 110.508
rwrist -50.7731
rhand 2.48727 -13.7867
rfingers 7.12502
rthumb 27.9705 -41.7229
lclavicle 8.79622e-015 4.77083e-015
lhumerus 7.5001 -2.65817 67.77
lradius 26.471
lwrist -41.6938
lhand -21.1499 22.4679
lfingers 7.12502
lthumb 5.22963 52.3834
rfemur 13.3374 -3.43706 10.9051
rtibia 29.5216
rfoot -23.6189 -27.6791
rtoes -30.3559
lfemur -73.7286 39.4132 -6.404
ltibia 86.7974
lfoot -15.9936 -2.96467
ltoes -1.97934
929
root 0.715238 12.8775 30.6759 16.4938 -30.388 -19.5224
lowerback 8.68269 1.349 6.39935
upperback -2.02923 2.83799 5.28789
thorax -7.00569 1.22298 1.57835
lowerneck -3.37759 7.42786 1.92792
upperneck 6.99093 9.7184 1.32511
head 2.8373 4.9171 0.439194
rclavicle 2.33075e-014 5.1684e-015
rhumerus -76.1943 19.5392 -96.6304
rradius 110.501
rwrist -50.7418
rhand 2.66696 -13.653
rfingers 7.12502
rthumb 28.1423 -41.561
lclavicle 2.33075e-014 5.1684e-015
lhumerus 7.4678 -2.60722 67.7902
lradius 26.4641
lwrist -41.6849
lhand -21.1841 22.4883
lfingers 7.12502
lthumb 5.19657 52.4045
rfemur 13.353 -3.43549 10.9198
rtibia 29.4798
rfoot -23.5809 -27.6953
rtoes -30.4011
lfemur -73.7677 39.4155 -6.41596
ltibia 86.8143
lfoot -16.0014 -2.97508
ltoes -1.98723
930
root 0.714923 12.8764 30.678 16.5087 -30.3752 -19.5251
lowerback 8.66387 1.34069 6.42207
upperback -2.04467 2.82859 5.28592
thorax -7.01052 1.21709 1.56547
lowerneck -3.34603 7.40999 1.94403
upperneck 6.96221 9.69477 1.32106
head 2.82273 4.90551 0.43215
rclavicle 5.48149e-014 -2.0276e-014
rhumerus -76.1889 19.538 -96.6399
rradius 110.497
rwrist -50.7276
rhand 2.787 -13.5737
rfingers 7.12502
rthumb 28.257 -41.4628
lclavicle 5.48149e-014 -2.0276e-014
lhumerus 7.4364 -2.56639 67.809
lradius 26.4646
lwrist -41.7055
lhand -21.2208 22.503
lfingers 7.12502
lthumb 5.16119 52.4201
rfemur 13.3732 -3.43735 10.9224
rtibia 29.435
rfoot -23.5484 -27.7052
rtoes -30.4303
lfemur -73.7989 39.4175 -6.42904
ltibia 86.8353
lfoot -16.0142 -2.98274
ltoes -1.97179
931
root 0.714643 12.8751 30.6808 16.5281 -30.3687 -19.5307
lowerback 8.63308 1.33526 6.45157
upperback -2.05689 2.82213 5.28278
thorax -7.00459 1.21259 1.5474
lowerneck -3.34399 7.40302 1.93951
upperneck 6.95938 9.68409 1.345
head 2.81977 4.90087 0.43976
rclavicle -1.40789e-013 -7.55382e-015
rhumerus -76.179 19.5378 -96.6483
rradius 110.494
rwrist -50.7296
rhand 2.83303 -13.553
rfingers 7.12502
rthumb 28.301 -41.4348
lclavicle -1.40789e-013 -7.55382e-015
lhumerus 7.40912 -2.54344 67.821
lradius 26.4686
lwrist -41.7594
lhand -21.2528 22.5099
lfingers 7.12502
lthumb 5.1303 52.4278
rfemur 13.3919 -3.44103 10.9204
rtibia 29.3887
rfoot -23.5216 -27.7079
rtoes -30.437
lfemur -73.8277 39.4242 -6.43743
ltibia 86.8618
lfoot -16.0318 -2.98801
ltoes -1.95637
932
root 0.714486 12.8738 30.6836 16.5473 -30.3669 -19.5354
lowerback 8.6 1.33197 6.48167
upperback -2.0661 2.81803 5.27897
thorax -6.99401 1.20934 1.52799
lowerneck -3.37178 7.40664 1.91397
upperneck 6.98294 9.68604 1.39573
head 2.82869 4.90299 0.461732
rclavicle -1.74434e-014 -7.51406e-014
rhumerus -76.1674 19.5394 -96.6551
rradius 110.491
rwrist -50.7426
rhand 2.86379 -13.5456
rfingers 7.12502
rthumb 28.3304 -41.4225
lclavicle -1.74434e-014 -7.51406e-014
lhumerus 7.38963 -2.53077 67.8278
lradius 26.4699
lwrist -41.8515
lhand -21.2622 22.4931
lfingers 7.12502
lthumb 5.12119 52.4112
rfemur 13.408 -3.4428 10.9158
rtibia 29.3446
rfoot -23.4938 -27.7108
rtoes -30.4319
lfemur -73.8514 39.4299 -6.44244
ltibia 86.8907
lfoot -16.0515 -2.9881
ltoes -1.9474
933
root 0.714507 12.8723 30.6865 16.5713 -30.3667 -19.5462
lowerback 8.55754 1.33028 6.52241
upperback -2.07027 2.81568 5.27444
thorax -6.97208 1.20678 1.50182
lowerneck -3.37396 7.4004 1.90381
upperneck 6.97392 9.67674 1.41851
head 2.82418 4.89884 0.469938
rclavicle 3.64273e-014 -1.47101e-014
rhumerus -76.1498 19.5412 -96.6619
rradius 110.486
rwrist -50.7576
rhand 2.78876 -13.6093
rfingers 7.12502
rthumb 28.2587 -41.4981
lclavicle 3.64273e-014 -1.47101e-014
lhumerus 7.38248 -2.52628 67.829
lradius 26.4648
lwrist -41.9604
lhand -21.2523 22.4532
lfingers 7.12502
lthumb 5.1307 52.3711
rfemur 13.4189 -3.44435 10.9149
rtibia 29.3068
rfoot -23.4678 -27.7145
rtoes -30.4258
lfemur -73.8761 39.4347 -6.43995
ltibia 86.9228
lfoot -16.0726 -2.98153
ltoes -1.97661
